<svg width="1970" height="508" viewBox="0 0 1970 508" fill="none" xmlns="http://www.w3.org/2000/svg">
<path d="M779.203 499.426V132.883H648.626V58.2173H1004.74V132.883H874.168V499.426H779.203Z" fill="url(#paint0_linear_2315_6435)"/>
<path d="M1116.89 507.911C1079.2 507.911 1050.75 496.032 1031.53 472.275C1012.31 448.518 1002.7 416.275 1002.7 375.548V160.035H1094.28V360.276C1094.28 383.279 1098.42 401.191 1106.71 414.013C1115 426.834 1128.38 433.245 1146.85 433.245C1169.08 433.245 1186.23 424.572 1198.29 407.225C1210.35 389.878 1216.38 368.572 1216.38 343.306V160.035H1307.95V499.426H1225.42V448.518H1211.85C1206.2 465.487 1195.84 479.629 1180.76 490.942C1165.69 502.255 1144.4 507.911 1116.89 507.911Z" fill="url(#paint1_linear_2315_6435)"/>
<path d="M1484.14 507.911C1446.45 507.911 1416.3 502.066 1393.69 490.376C1371.46 478.309 1355.07 463.225 1344.51 445.124C1334.34 427.023 1328.5 408.922 1326.99 390.821H1414.04C1415.93 400.626 1419.88 409.676 1425.91 417.972C1432.32 425.892 1440.61 432.114 1450.78 436.639C1461.34 441.164 1473.96 443.427 1488.66 443.427C1506.75 443.427 1519.75 440.41 1527.66 434.376C1535.57 427.966 1539.53 419.858 1539.53 410.053C1539.53 401.003 1535.76 393.461 1528.23 387.427C1521.07 381.016 1509.2 375.171 1492.61 369.892L1451.92 356.316C1432.32 349.528 1414.23 342.175 1397.65 334.256C1381.07 325.96 1367.69 315.401 1357.52 302.579C1347.72 289.758 1342.82 273.165 1342.82 252.802C1342.82 222.634 1354.31 198.311 1377.3 179.833C1400.29 160.978 1432.88 151.55 1475.09 151.55C1505.62 151.55 1530.49 156.264 1549.71 165.691C1569.3 175.119 1584 187.752 1593.8 203.59C1603.6 219.051 1609.25 236.209 1610.76 255.064H1527.1C1525.21 241.489 1519.56 231.118 1510.14 223.954C1500.72 216.412 1487.9 212.641 1471.7 212.641C1457 212.641 1445.89 215.469 1438.35 221.125C1431.19 226.782 1427.61 234.512 1427.61 244.317C1427.61 254.122 1431.57 262.229 1439.48 268.64C1447.39 275.051 1459.45 280.896 1475.66 286.175L1516.36 299.185C1535.95 305.219 1553.85 312.384 1570.06 320.68C1586.64 328.599 1599.83 339.158 1609.62 352.357C1619.42 365.178 1624.32 381.959 1624.32 402.7C1624.32 434.376 1612.26 459.831 1588.14 479.063C1564.4 498.295 1529.73 507.911 1484.14 507.911Z" fill="url(#paint2_linear_2315_6435)"/>
<path d="M1645.54 499.426V46.9043H1737.11V290.135H1764.24L1859.21 160.035H1956.43V163.429L1840.55 318.418L1970 496.032V499.426H1863.17L1764.24 358.013H1737.11V499.426H1645.54Z" fill="url(#paint3_linear_2315_6435)"/>
<path d="M0 230.867V0H367.503V98.9431H98.9431V230.867H0Z" fill="url(#paint4_linear_2315_6435)"/>
<path d="M499.427 0H400.484V131.924H131.924V499.427H365.147V263.848H266.204V402.84H230.867V230.867H499.427V0Z" fill="url(#paint5_linear_2315_6435)"/>
<defs>
<linearGradient id="paint0_linear_2315_6435" x1="698.489" y1="149.109" x2="1543.87" y2="963.678" gradientUnits="userSpaceOnUse">
<stop offset="0.03125" stop-color="#7532F6"/>
<stop offset="0.572917" stop-color="#B100FF"/>
</linearGradient>
<linearGradient id="paint1_linear_2315_6435" x1="698.489" y1="149.109" x2="1543.87" y2="963.678" gradientUnits="userSpaceOnUse">
<stop offset="0.03125" stop-color="#7532F6"/>
<stop offset="0.572917" stop-color="#B100FF"/>
</linearGradient>
<linearGradient id="paint2_linear_2315_6435" x1="698.489" y1="149.109" x2="1543.87" y2="963.678" gradientUnits="userSpaceOnUse">
<stop offset="0.03125" stop-color="#7532F6"/>
<stop offset="0.572917" stop-color="#B100FF"/>
</linearGradient>
<linearGradient id="paint3_linear_2315_6435" x1="698.489" y1="149.109" x2="1543.87" y2="963.678" gradientUnits="userSpaceOnUse">
<stop offset="0.03125" stop-color="#7532F6"/>
<stop offset="0.572917" stop-color="#B100FF"/>
</linearGradient>
<linearGradient id="paint4_linear_2315_6435" x1="13.868" y1="51.1828" x2="366.343" y2="239.802" gradientUnits="userSpaceOnUse">
<stop offset="0.03125" stop-color="#7532F6"/>
<stop offset="0.572917" stop-color="#B100FF"/>
</linearGradient>
<linearGradient id="paint5_linear_2315_6435" x1="145.792" y1="110.722" x2="573.058" y2="216.415" gradientUnits="userSpaceOnUse">
<stop offset="0.03125" stop-color="#7532F6"/>
<stop offset="0.572917" stop-color="#B100FF"/>
</linearGradient>
</defs>
</svg>